<svg width="283" height="223" viewBox="0 0 283 223" fill="none" xmlns="http://www.w3.org/2000/svg">
<path fill-rule="evenodd" clip-rule="evenodd" d="M262 14.0002C271.834 23.3242 278.334 34.6572 281.5 48.0003C282 88.6653 282.167 129.332 282 170C281.924 176.301 280.591 182.301 278 188C265.541 214.9 244.541 226.066 215 221.5C198.523 217.099 186.523 207.266 179 192C154 190.667 129 190.667 104 192C91.876 214.732 72.876 224.899 47 222.5C20.606 216.772 5.10601 200.606 0.500006 174C-0.166994 132.333 -0.166994 90.6673 0.500006 49.0003C1.16201 46.6873 1.66201 44.3543 2.00001 42.0003C6.52901 29.1283 14.196 18.4622 25 10.0002C33.56 4.75725 42.893 1.59125 53 0.50025C111.667 -0.16675 170.333 -0.16675 229 0.50025C241.23 2.29125 252.23 6.79125 262 14.0002Z" fill="#003EFE"/>
<path fill-rule="evenodd" clip-rule="evenodd" d="M101 41C122.203 52.764 143.203 64.764 164 77C163.914 77.996 164.248 78.829 165 79.5C170.79 80.622 173.623 84.122 173.5 90C173.833 89.333 174.167 88.667 174.5 88C177.164 88.581 179.498 90.247 181.5 93C182.276 89.851 183.776 89.351 186 91.5C184.019 92.105 183.685 93.105 185 94.5C183.751 96.324 182.585 96.157 181.5 94C180.647 95.625 179.647 95.958 178.5 95C178.318 98.381 176.818 99.381 174 98C174.209 97.414 174.543 96.914 175 96.5C173.569 96.035 172.403 95.201 171.5 94C171.466 95.68 171.299 97.18 171 98.5C173.095 99.056 173.262 99.556 171.5 100C170.22 99.887 169.387 99.22 169 98C169.826 97.049 169.992 96.049 169.5 95C168.451 96.017 167.284 96.184 166 95.5C166.78 94.427 166.613 93.26 165.5 92C162.988 95.228 159.821 96.395 156 95.5C157.211 96.393 157.211 97.226 156 98C153.37 96.113 151.203 94.446 149.5 93C148.5 94.333 147.5 94.333 146.5 93C146.081 94.172 145.415 95.172 144.5 96C142.545 95.047 140.878 93.713 139.5 92C138.519 95.155 137.185 95.488 135.5 93C133.833 94.333 132.167 94.333 130.5 93C130.008 94.049 130.174 95.049 131 96C130.226 97.211 129.393 97.211 128.5 96C128.192 96.808 127.692 97.475 127 98C126.806 96.43 126.806 94.93 127 93.5C124.283 92.467 122.449 93.3 121.5 96C120.5 95.333 119.5 94.667 118.5 94C115.93 94.509 113.597 95.509 111.5 97C110.833 95.667 109.833 94.667 108.5 94C107.833 95.333 107.167 95.333 106.5 94C105.421 95.894 104.087 96.227 102.5 95C101.403 96.553 100.07 97.886 98.4999 99C97.8419 97.392 98.3419 96.225 99.9999 95.5C99.3739 94.75 98.8739 93.916 98.4999 93C96.8409 95.93 96.5079 98.93 97.4999 102C95.9339 102.561 94.6009 101.894 93.4999 100C92.2339 101.696 92.3999 103.529 93.9999 105.5C92.6269 111.855 91.6269 118.021 90.9999 124C90.8329 98.664 90.9999 73.331 91.4999 48C93.5859 44.055 96.7529 41.721 101 41Z" fill="#000220"/>
<path fill-rule="evenodd" clip-rule="evenodd" d="M164 77C174.063 82.114 183.563 88.114 192.5 95C194.586 99.167 194.253 103.167 191.5 107C161.913 124.878 132.08 142.378 102 159.5C99.571 160.203 97.238 160.037 95 159C94.088 156.905 92.921 154.905 91.5 153C91 143.339 90.834 133.672 91 124C91.627 118.021 92.627 111.855 94 105.5C92.4 103.529 92.234 101.696 93.5 100C94.601 101.894 95.934 102.561 97.5 102C96.508 98.93 96.841 95.93 98.5 93C98.874 93.916 99.374 94.75 100 95.5C98.342 96.225 97.842 97.392 98.5 99C100.07 97.886 101.403 96.553 102.5 95C104.087 96.227 105.421 95.894 106.5 94C107.167 95.333 107.833 95.333 108.5 94C109.833 94.667 110.833 95.667 111.5 97C113.597 95.509 115.93 94.509 118.5 94C119.5 94.667 120.5 95.333 121.5 96C122.449 93.3 124.283 92.467 127 93.5C126.806 94.93 126.806 96.43 127 98C127.692 97.475 128.192 96.808 128.5 96C129.393 97.211 130.226 97.211 131 96C130.174 95.049 130.008 94.049 130.5 93C132.167 94.333 133.833 94.333 135.5 93C137.185 95.488 138.519 95.155 139.5 92C140.878 93.713 142.545 95.047 144.5 96C145.415 95.172 146.081 94.172 146.5 93C147.5 94.333 148.5 94.333 149.5 93C151.203 94.446 153.37 96.113 156 98C157.211 97.226 157.211 96.393 156 95.5C159.821 96.395 162.988 95.228 165.5 92C166.613 93.26 166.78 94.427 166 95.5C167.284 96.184 168.451 96.017 169.5 95C169.992 96.049 169.826 97.049 169 98C169.387 99.22 170.22 99.887 171.5 100C173.262 99.556 173.095 99.056 171 98.5C171.299 97.18 171.466 95.68 171.5 94C172.403 95.201 173.569 96.035 175 96.5C174.543 96.914 174.209 97.414 174 98C176.818 99.381 178.318 98.381 178.5 95C179.647 95.958 180.647 95.625 181.5 94C182.585 96.157 183.751 96.324 185 94.5C183.685 93.105 184.019 92.105 186 91.5C183.776 89.351 182.276 89.851 181.5 93C179.498 90.247 177.164 88.581 174.5 88C174.167 88.667 173.833 89.333 173.5 90C173.623 84.122 170.79 80.622 165 79.5C164.248 78.829 163.914 77.996 164 77Z" fill="#00021D"/>
<path fill-rule="evenodd" clip-rule="evenodd" d="M48.0001 160C65.6601 159.491 72.4931 167.824 68.5001 185C61.6811 195.246 52.8481 197.413 42.0001 191.5C32.5191 181.543 32.8531 171.877 43.0001 162.5C44.8151 161.743 46.4811 160.91 48.0001 160Z" fill="#010219"/>
<path fill-rule="evenodd" clip-rule="evenodd" d="M224 160C244.29 160.572 250.457 170.238 242.5 189C231.225 198.134 221.558 196.801 213.5 185C209.549 173.318 213.049 164.985 224 160Z" fill="#000219"/>
</svg>
